HIERARCHY
ROOT hip
{
  OFFSET 0.0 0.0 0.0
  CHANNELS 6 Xposition Yposition Zposition Zrotation Yrotation Xrotation
  JOINT abdomen
  {
    OFFSET 0.0 20.6881 -0.73152
    CHANNELS 3 Zrotation Xrotation Yrotation
    JOINT chest
    {
      OFFSET 0.0 11.7043 -0.48768
      CHANNELS 3 Zrotation Xrotation Yrotation
      JOINT neck
      {
        OFFSET 0.0 22.1894 -2.19456
        CHANNELS 3 Zrotation Xrotation Yrotation
        JOINT head
        {
          OFFSET -0.24384 7.07133 1.2192
          CHANNELS 3 Zrotation Xrotation Yrotation
          JOINT leftEye
          {
            OFFSET 4.14528 8.04674 8.04672
            CHANNELS 3 Zrotation Xrotation Yrotation
            End Site
            {
              OFFSET 1.0 0.0 0.0
            }
          }
          JOINT rightEye
          {
            OFFSET -3.6576 8.04674 8.04672
            CHANNELS 3 Zrotation Xrotation Yrotation
            End Site
            {
              OFFSET 1.0 0.0 0.0
            }
          }
        }
      }
      JOINT rCollar
      {
        OFFSET -2.68224 19.2634 -4.8768
        CHANNELS 3 Zrotation Xrotation Yrotation
        JOINT rShldr
        {
          OFFSET -8.77824 -1.95073 1.46304
          CHANNELS 3 Zrotation Xrotation Yrotation
          JOINT rForeArm
          {
            OFFSET -28.1742 -1.7115 0.48768
            CHANNELS 3 Zrotation Xrotation Yrotation
            JOINT rHand
            {
              OFFSET -22.5879 0.773209 7.07136
              CHANNELS 3 Zrotation Xrotation Yrotation
              JOINT rThumb1
              {
                OFFSET -1.2192 -0.487915 3.41376
                CHANNELS 3 Zrotation Xrotation Yrotation
                JOINT rThumb2
                {
                  OFFSET -3.37035 -0.52449 3.41376
                  CHANNELS 3 Zrotation Xrotation Yrotation
                  End Site
                  {
                    OFFSET -1.78271 -1.18214 1.43049
                  }
                }
              }
              JOINT rIndex1
              {
                OFFSET -7.75947 0.938293 5.60832
                CHANNELS 3 Zrotation Xrotation Yrotation
                JOINT rIndex2
                {
                  OFFSET -2.54057 -0.884171 1.56538
                  CHANNELS 3 Zrotation Xrotation Yrotation
                  End Site
                  {
                    OFFSET -1.62519 -0.234802 1.16502
                  }
                }
              }
              JOINT rMid1
              {
                OFFSET -8.24714 1.18213 3.41376
                CHANNELS 3 Zrotation Xrotation Yrotation
                JOINT rMid2
                {
                  OFFSET -3.10165 -0.590103 1.0647
                  CHANNELS 3 Zrotation Xrotation Yrotation
                  End Site
                  {
                    OFFSET -2.48547 -0.328903 0.83742
                  }
                }
              }
              JOINT rRing1
              {
                OFFSET -8.82822 0.546677 1.51678
                CHANNELS 3 Zrotation Xrotation Yrotation
                JOINT rRing2
                {
                  OFFSET -2.60934 -0.819778 -0.0198488
                  CHANNELS 3 Zrotation Xrotation Yrotation
                  End Site
                  {
                    OFFSET -2.33842 -0.294052 0.168128
                  }
                }
              }
              JOINT rPinky1
              {
                OFFSET -8.27202 -0.0477905 -0.4584
                CHANNELS 3 Zrotation Xrotation Yrotation
                JOINT rPinky2
                {
                  OFFSET -1.82734 -0.647385 -0.700984
                  CHANNELS 3 Zrotation Xrotation Yrotation
                  End Site
                  {
                    OFFSET -1.69225 -0.51767 -0.607171
                  }
                }
              }
            }
          }
        }
      }
      JOINT lCollar
      {
        OFFSET 2.68224 19.2634 -4.8768
        CHANNELS 3 Zrotation Xrotation Yrotation
        JOINT lShldr
        {
          OFFSET 8.77824 -1.95073 1.46304
          CHANNELS 3 Zrotation Xrotation Yrotation
          JOINT lForeArm
          {
            OFFSET 28.1742 -1.7115 0.48768
            CHANNELS 3 Zrotation Xrotation Yrotation
            JOINT lHand
            {
              OFFSET 22.5879 0.773209 7.07136
              CHANNELS 3 Zrotation Xrotation Yrotation
              JOINT lThumb1
              {
                OFFSET 1.2192 -0.487915 3.41376
                CHANNELS 3 Zrotation Xrotation Yrotation
                JOINT lThumb2
                {
                  OFFSET 3.37035 -0.52449 3.41376
                  CHANNELS 3 Zrotation Xrotation Yrotation
                  End Site
                  {
                    OFFSET 1.78271 -1.18214 1.43049
                  }
                }
              }
              JOINT lIndex1
              {
                OFFSET 7.75947 0.938293 5.60832
                CHANNELS 3 Zrotation Xrotation Yrotation
                JOINT lIndex2
                {
                  OFFSET 2.54057 -0.884171 1.56538
                  CHANNELS 3 Zrotation Xrotation Yrotation
                  End Site
                  {
                    OFFSET 1.62519 -0.234802 1.16502
                  }
                }
              }
              JOINT lMid1
              {
                OFFSET 8.24714 1.18213 3.41376
                CHANNELS 3 Zrotation Xrotation Yrotation
                JOINT lMid2
                {
                  OFFSET 3.10165 -0.590103 1.0647
                  CHANNELS 3 Zrotation Xrotation Yrotation
                  End Site
                  {
                    OFFSET 2.48547 -0.328903 0.83742
                  }
                }
              }
              JOINT lRing1
              {
                OFFSET 8.82822 0.546677 1.51678
                CHANNELS 3 Zrotation Xrotation Yrotation
                JOINT lRing2
                {
                  OFFSET 2.60934 -0.819778 -0.0198488
                  CHANNELS 3 Zrotation Xrotation Yrotation
                  End Site
                  {
                    OFFSET 2.33842 -0.294052 0.168128
                  }
                }
              }
              JOINT lPinky1
              {
                OFFSET 8.27202 -0.0477905 -0.4584
                CHANNELS 3 Zrotation Xrotation Yrotation
                JOINT lPinky2
                {
                  OFFSET 1.82734 -0.647385 -0.700984
                  CHANNELS 3 Zrotation Xrotation Yrotation
                  End Site
                  {
                    OFFSET 1.69225 -0.51767 -0.607171
                  }
                }
              }
            }
          }
        }
      }
    }
  }
  JOINT rButtock
  {
    OFFSET -8.77824 4.35084 1.2192
    CHANNELS 3 Zrotation Xrotation Yrotation
    JOINT rThigh
    {
      OFFSET 0.0 -1.70687 -2.19456
      CHANNELS 3 Zrotation Xrotation Yrotation
      JOINT rShin
      {
        OFFSET 0.0 -36.8199 0.73152
        CHANNELS 3 Zrotation Xrotation Yrotation
        JOINT rFoot
        {
          OFFSET 0.73152 -45.1104 -5.12064
          CHANNELS 3 Zrotation Xrotation Yrotation
          End Site
          {
            OFFSET -1.1221 -3.69964 12.103
          }
        }
      }
    }
  }
  JOINT lButtock
  {
    OFFSET 8.77824 4.35084 1.2192
    CHANNELS 3 Zrotation Xrotation Yrotation
    JOINT lThigh
    {
      OFFSET 0.0 -1.70687 -2.19456
      CHANNELS 3 Zrotation Xrotation Yrotation
      JOINT lShin
      {
        OFFSET 0.0 -36.8199 0.73152
        CHANNELS 3 Zrotation Xrotation Yrotation
        JOINT lFoot
        {
          OFFSET -0.73152 -45.1104 -5.12064
          CHANNELS 3 Zrotation Xrotation Yrotation
          End Site
          {
            OFFSET 1.1221 -3.69964 12.103
          }
        }
      }
    }
  }
}
MOTION
Frames: 5
Frame Time: 0.00833333
31.8567 84.7272 24.1885 -5.1446 9.3977 4.5886 5.92252 5.2316 7.29768 2.83863 4.36257 2.04832 2.18222 7.12685 -6.78483 4.63647 21.991 -13.7918 -0.0 0.0 0.0 -0.0 0.0 0.0 7.19208e-14 1.87951e-13 -7.76068e-14 42.2048 51.8918 33.1104 -17.1387 -55.2667 120.779 -0.182662 -12.0939 -1.72562 -7.52145e-11 6.34266e-11 -3.63746e-10 -1.21905e-10 1.18897e-10 -6.31409e-10 -7.52145e-11 6.34205e-11 -3.63763e-10 7.73091 5.47488 0.417314 -7.52114e-11 6.34193e-11 -3.63748e-10 2.90554 0.965183 0.102902 -7.52103e-11 6.3419e-11 -3.63744e-10 10.2786 0.731801 0.0259123 -7.52206e-11 6.34245e-11 -3.63734e-10 2.22167 -0.733487 -0.20892 7.18766e-14 1.8795e-13 -7.78211e-14 -100.863 36.8518 36.2517 22.0837 -15.8844 -44.0129 0.21795 -13.1622 1.88353 -1.22363e-09 -8.66696e-11 4.26209e-10 -2.11663e-09 -1.53238e-10 7.29412e-10 -1.22364e-09 -8.66681e-11 4.2621e-10 -7.73091 5.47488 -0.417314 -1.22363e-09 -8.66692e-11 4.26203e-10 -2.90554 0.965183 -0.102902 -1.22363e-09 -8.66681e-11 4.26208e-10 -10.2786 0.731801 -0.0259123 -1.22362e-09 -8.66634e-11 4.262e-10 -2.22167 -0.733487 0.20892 -2.03217e-16 0.0 -3.88251e-19 6.28257 -26.1631 -4.36034 -0.245675 35.4643 0.576063 -0.836415 -2.41667 -1.78962 2.03217e-16 0.0 3.88251e-19 -0.449107 -44.5029 -8.09727 0.813094 54.9867 -1.14398 1.23197 12.752 -6.40673
31.7897 84.3812 24.4962 -5.4108 9.3045 4.5092 6.27921 5.01986 7.47684 2.72044 4.40027 2.10413 2.17456 7.21301 -6.83975 4.61868 21.8483 -13.8803 -0.0 0.0 0.0 -0.0 0.0 0.0 1.66894e-13 1.5832e-13 -1.23619e-14 42.2093 52.0501 32.9777 -17.0485 -55.319 120.976 -0.174761 -11.8323 -1.6872 5.12317e-10 5.13921e-10 -4.78512e-10 8.94726e-10 8.95609e-10 -8.24744e-10 5.12319e-10 5.13917e-10 -4.78522e-10 7.73091 5.47488 0.417314 5.12318e-10 5.13916e-10 -4.7851e-10 2.90554 0.965183 0.102902 5.12318e-10 5.13916e-10 -4.78505e-10 10.2786 0.731801 0.0259123 5.12311e-10 5.13921e-10 -4.78495e-10 2.22167 -0.733487 -0.20892 1.66927e-13 1.5832e-13 -1.26287e-14 -100.908 36.7369 36.2728 21.9465 -15.6778 -43.6434 0.205115 -12.7754 1.82626 -1.673e-09 -4.88659e-11 3.79914e-10 -2.89175e-09 -8.75943e-11 6.45319e-10 -1.673e-09 -4.88649e-11 3.79913e-10 -7.73091 5.47488 -0.417314 -1.673e-09 -4.8865e-11 3.79906e-10 -2.90554 0.965183 -0.102902 -1.67301e-09 -4.88641e-11 3.79909e-10 -10.2786 0.731801 -0.0259123 -1.67299e-09 -4.88594e-11 3.79897e-10 -2.22167 -0.733487 0.20892 -2.03217e-16 0.0 -3.88251e-19 6.60018 -25.5201 -4.62776 -0.236955 35.0413 0.580603 -0.863712 -4.0045 -1.68949 2.03217e-16 0.0 3.88251e-19 -0.497233 -44.5142 -8.86327 0.803042 54.78 -1.13594 1.19541 12.4662 -6.44795
31.7019 84.0156 24.7801 -5.7336 9.1728 4.398 6.67696 4.88245 7.6475 2.63313 4.40337 2.15896 2.16311 7.28488 -6.88353 4.57396 21.7094 -13.9442 -0.0 0.0 0.0 -0.0 0.0 0.0 2.1227e-13 1.49486e-13 1.60519e-14 42.1774 52.1542 32.869 -16.9727 -55.3625 121.14 -0.167839 -11.5968 -1.65268 7.49709e-10 7.28681e-10 -5.63263e-10 1.30598e-09 1.26639e-09 -9.69268e-10 7.49714e-10 7.28679e-10 -5.6327e-10 7.73091 5.47488 0.417314 7.49709e-10 7.28678e-10 -5.6326e-10 2.90554 0.965183 0.102902 7.49709e-10 7.28677e-10 -5.63255e-10 10.2786 0.731801 0.0259123 7.49705e-10 7.28682e-10 -5.63244e-10 2.22167 -0.733487 -0.20892 2.12348e-13 1.49487e-13 1.57537e-14 -100.98 36.6424 36.2823 21.8142 -15.4809 -43.2905 0.188995 -12.2927 1.7549 -1.88861e-09 -1.17044e-11 3.54253e-10 -3.26344e-09 -2.3234e-11 5.99292e-10 -1.88861e-09 -1.17036e-11 3.5425e-10 -7.73091 5.47488 -0.417314 -1.8886e-09 -1.17033e-11 3.54244e-10 -2.90554 0.965183 -0.102902 -1.88861e-09 -1.17026e-11 3.54245e-10 -10.2786 0.731801 -0.0259123 -1.88859e-09 -1.16981e-11 3.54231e-10 -2.22167 -0.733487 0.20892 -2.03217e-16 0.0 -3.88251e-19 7.00953 -24.9002 -4.79501 -0.228834 34.6493 0.58431 -0.890241 -5.46658 -1.63025 2.03217e-16 0.0 3.88251e-19 -0.374727 -44.612 -9.34642 0.810609 54.9422 -1.14412 1.13662 12.0592 -6.38499
31.5858 83.6348 25.047 -6.1142 9.0036 4.2455 7.12918 4.8481 7.83046 2.58829 4.35296 2.21938 2.14283 7.33848 -6.91772 4.49542 21.5719 -13.985 -0.0 0.0 0.0 -0.0 0.0 0.0 1.89187e-13 1.7841e-13 -1.78374e-14 42.0929 52.1876 32.7754 -16.9114 -55.3975 121.273 -0.161558 -11.3817 -1.62118 4.53668e-10 6.03932e-10 -6.44009e-10 7.95678e-10 1.05343e-09 -1.11173e-09 4.53673e-10 6.03931e-10 -6.44014e-10 7.73091 5.47488 0.417314 4.53668e-10 6.03931e-10 -6.44006e-10 2.90554 0.965183 0.102902 4.53668e-10 6.0393e-10 -6.44002e-10 10.2786 0.731801 0.0259123 4.53666e-10 6.03934e-10 -6.43991e-10 2.22167 -0.733487 -0.20892 1.89264e-13 1.7841e-13 -1.81348e-14 -101.084 36.5715 36.2766 21.6835 -15.2895 -42.9419 0.166733 -11.6104 1.65438 -1.82703e-09 3.75258e-11 3.70049e-10 -3.15684e-09 6.15367e-11 6.28375e-10 -1.82704e-09 3.75264e-11 3.70046e-10 -7.73091 5.47488 -0.417314 -1.82703e-09 3.75265e-11 3.70039e-10 -2.90554 0.965183 -0.102902 -1.82704e-09 3.75269e-11 3.7004e-10 -10.2786 0.731801 -0.0259123 -1.82702e-09 3.75309e-11 3.70027e-10 -2.22167 -0.733487 0.20892 -2.03217e-16 0.0 -3.88251e-19 7.53741 -24.2905 -4.81532 -0.221189 34.2824 0.586894 -0.922225 -6.80312 -1.62384 2.03217e-16 0.0 3.88251e-19 -0.0163706 -44.828 -9.4389 0.843814 55.6264 -1.17596 1.04367 11.4292 -6.17463
31.4427 83.244 25.3 -6.5423 8.8135 4.0573 7.64106 4.88919 8.0306 2.56631 4.26283 2.28689 2.11566 7.37818 -6.94518 4.38781 21.4218 -14.0083 -0.0 0.0 0.0 -0.0 0.0 0.0 1.21832e-13 2.31187e-13 -9.16863e-14 41.9621 52.1703 32.6835 -16.8546 -55.4299 121.396 -0.15544 -11.1691 -1.59009 -1.91795e-10 2.64892e-10 -7.31122e-10 -3.18202e-10 4.72218e-10 -1.26842e-09 -1.91792e-10 2.64892e-10 -7.31127e-10 7.73091 5.47488 0.417314 -1.91797e-10 2.64893e-10 -7.3112e-10 2.90554 0.965183 0.102902 -1.91795e-10 2.64892e-10 -7.31117e-10 10.2786 0.731801 0.0259123 -1.91796e-10 2.64895e-10 -7.31107e-10 2.22167 -0.733487 -0.20892 1.21886e-13 2.31187e-13 -9.19659e-14 -101.218 36.5373 36.2588 21.5505 -15.0973 -42.5889 0.141389 -10.7445 1.52773 -1.58486e-09 1.027e-10 4.08215e-10 -2.73854e-09 1.73626e-10 6.9838e-10 -1.58486e-09 1.027e-10 4.08214e-10 -7.73091 5.47488 -0.417314 -1.58486e-09 1.027e-10 4.08205e-10 -2.90554 0.965183 -0.102902 -1.58486e-09 1.027e-10 4.08208e-10 -10.2786 0.731801 -0.0259123 -1.58485e-09 1.02703e-10 4.08197e-10 -2.22167 -0.733487 0.20892 -2.03217e-16 0.0 -3.88251e-19 8.1483 -23.7182 -4.78818 -0.214773 33.9802 0.589813 -0.948403 -8.07408 -1.59968 2.03217e-16 0.0 3.88251e-19 0.546518 -45.1256 -9.23053 0.902036 56.7624 -1.23139 0.930311 10.6258 -5.84437
